PathFileType	4	(X/Y/Z)	D:\TRACE\spot_10-12-23\spot_arm_body_motion_1_10-v60.trc
DataRate	CameraRate	NumFrames	NumMarkers	Units	OrigDataRate	OrigDataStartFrame	OrigNumFrames
100.00	100.00	      21	9	mm	100.00	5251	      7000
Frame#	Time	front left toe			Front right toe			aft left toe			aft right toe			Arm			FL body			FR body			AL Body			AR Body			
		X1	Y1	Z1	X2	Y2	Z2	X3	Y3	Z3	X4	Y4	Z4	X5	Y5	Z5	X6	Y6	Z6	X7	Y7	Z7	X8	Y8	Z8	X9	Y9	Z9	

5251	52.500	-141.34572	7.30776	-426.45407	267.90408	17.95909	-512.70569	-88.67450	17.58987	144.30351	322.00403	26.70949	127.88629	10.16101	747.70300	-761.68811	-102.75513	586.60638	-512.94684	49.91022	590.70294	-534.91541	17.44126	566.93329	360.87042	157.31708	565.36475	343.88495	
5252	52.510	-140.51796	7.33727	-426.36069	269.18665	18.62873	-512.49500	-87.64923	17.89916	144.20827	323.21597	26.70013	127.72370	11.14561	747.43774	-761.60968	-103.15202	586.81152	-513.18427	49.39014	591.12299	-535.45233	18.51984	567.17395	360.20392	158.51248	565.88562	343.14404	
5253	52.520	-139.74599	7.32628	-426.13486	269.97720	18.76469	-512.93646	-86.52083	17.73145	144.61586	324.04010	26.47591	127.61234	12.67165	747.18622	-761.53595	-103.31517	586.96948	-513.44769	48.92559	591.15869	-535.51227	19.78158	567.93567	359.91406	159.55318	566.45996	342.53879	
5254	52.530	-138.67102	7.40590	-425.93161	270.45496	18.98960	-513.17285	-85.50548	17.96048	144.36134	324.95190	26.45400	127.64871	13.97006	747.15271	-761.68976	-103.39856	587.30865	-513.79950	48.79610	591.58484	-536.06360	20.78327	568.31500	359.27374	160.89166	567.17767	341.92090	
5255	52.540	-138.08968	7.70834	-425.88766	271.14767	19.28238	-513.04602	-84.53276	18.11066	144.31361	326.17371	26.44454	127.79043	15.15517	747.11176	-761.75580	-103.00504	587.78137	-514.28656	49.13974	591.88849	-536.58502	21.66797	568.85291	358.70572	161.89452	567.30304	341.41245	
5256	52.550	-137.00186	8.16021	-426.00354	272.62265	19.80401	-512.63403	-83.53826	17.86130	144.26297	326.92474	26.28962	127.58417	16.32320	747.12885	-761.85114	-102.25712	588.01038	-514.79523	49.94607	592.28717	-537.25513	22.28437	569.21765	358.13995	162.71576	567.56427	340.95786	
5257	52.560	-135.76239	8.53360	-426.13171	273.52618	20.17377	-512.56110	-82.63712	17.64685	144.39000	328.89426	27.10962	127.92915	17.28944	747.16730	-762.04547	-101.31247	588.79199	-515.57544	51.15319	592.73999	-538.11285	22.69416	569.45648	357.77502	162.71082	567.67859	340.00589	
5258	52.570	-134.69267	8.91332	-426.02112	273.94800	20.30990	-512.63538	-81.48675	17.32975	144.59547	330.04776	27.14459	128.23355	17.77070	747.34662	-762.07813	-99.97540	589.28021	-516.06952	52.14067	593.08203	-538.29047	23.11830	569.54944	357.22189	163.28711	567.78412	339.73083	
5259	52.580	-133.56366	9.37155	-426.20523	275.47733	20.72642	-512.23700	-80.48825	17.00318	144.60924	330.94592	27.23593	128.46802	18.14789	747.62213	-762.04132	-98.26283	590.07550	-516.75940	53.87054	593.79590	-538.64557	23.76150	569.62854	356.56235	163.86464	567.77081	339.45129	
5260	52.590	-132.45941	9.58987	-426.21606	276.46814	20.88828	-512.34198	-79.64616	17.07002	144.65965	331.70807	26.98706	128.36891	18.36522	748.06226	-761.92670	-96.38245	590.86078	-517.34161	55.22367	594.50537	-539.18048	24.11930	569.97876	356.12070	164.20934	567.80170	338.77521	
5261	52.600	-131.43912	10.32238	-426.18869	277.22290	21.12621	-512.33398	-78.50345	17.03072	144.64597	332.67523	26.97618	128.53152	18.53215	748.50507	-761.70911	-94.90712	591.46661	-518.13495	57.64234	595.09088	-540.11145	24.46687	570.14886	355.57480	164.72234	567.98627	338.66028	
5262	52.610	-130.57649	10.82393	-426.30835	279.03976	21.73996	-511.60022	-77.68433	17.11498	144.53783	332.31335	25.72370	128.58795	18.71312	748.84650	-761.58478	-93.02202	592.25659	-518.89728	59.19831	595.62445	-540.02679	25.08312	570.10083	354.86813	165.45584	567.85968	338.33420	
5263	52.620	-129.28825	11.04823	-426.34760	279.79688	21.81921	-511.44025	-76.73778	16.99796	144.57094	333.06024	25.54889	128.65041	19.02322	749.23297	-761.54175	-91.28313	592.76898	-519.54980	61.18459	596.20557	-540.65759	26.09540	569.99597	354.45053	166.32674	567.83307	338.05386	
5264	52.630	-128.45853	11.57152	-426.28836	280.73618	22.15271	-511.22067	-75.54733	16.74295	144.65405	334.35849	25.43168	128.75908	19.44721	749.48792	-761.50885	-89.47717	593.32880	-520.00659	62.78156	596.75470	-540.98102	27.19100	570.03412	354.05911	167.44722	567.84564	337.69479	
5265	52.640	-127.54672	12.00709	-426.13840	281.92838	22.63027	-511.13596	-74.54390	16.67908	144.87123	335.17416	25.41765	128.91815	19.93044	749.78802	-761.40613	-87.87402	593.85034	-520.44073	64.72498	597.34412	-541.94794	28.72599	570.11646	353.61124	168.85214	567.86975	337.23019	
5266	52.650	-126.55489	12.34589	-426.15210	282.68341	22.88347	-511.40939	-73.68609	16.75900	144.88052	336.15988	25.25439	128.90376	20.52409	749.91071	-761.35553	-86.25439	594.63080	-521.04907	66.31095	597.76611	-542.56671	30.07006	570.22046	352.90958	170.33072	567.89368	336.72900	
5267	52.660	-125.51009	12.56696	-426.11719	283.39688	23.23915	-511.29443	-72.63652	16.95106	144.78951	337.37009	25.11181	128.99538	21.20590	749.98297	-761.25562	-84.86569	594.94421	-521.53473	67.53429	597.95081	-542.43304	31.76903	570.56604	352.52499	171.83252	567.96277	336.11838	
5268	52.670	-124.64835	12.92191	-425.97745	284.42145	23.48442	-511.00723	-71.91875	17.09782	144.79706	338.22430	24.70095	129.06279	21.90817	749.98505	-761.29205	-83.26893	595.35651	-522.04608	69.21926	598.22186	-543.05115	33.55206	570.71588	352.03995	173.66388	568.02704	335.66919	
5269	52.680	-123.73062	13.17773	-425.68683	285.80438	24.00481	-510.61658	-70.64028	16.85769	144.88512	339.25809	24.64103	128.98326	22.89808	749.94476	-761.31427	-81.64753	595.59186	-522.63452	70.54011	598.36292	-543.53339	35.20153	570.95361	351.48459	175.44824	568.20789	335.06171	
5270	52.690	-122.70554	13.56231	-425.66223	286.33844	24.05852	-510.85406	-69.84246	17.00712	145.21986	340.34561	24.57529	129.20911	24.00604	750.00464	-761.52655	-80.02122	595.89355	-522.93542	72.48484	598.73138	-544.14844	36.93268	571.02533	351.05441	177.11104	568.20721	334.51123	
5271	52.700	-121.82427	14.19835	-425.82358	287.00717	24.19282	-510.92548	-68.46389	17.01573	145.02138	341.28568	24.41921	129.23416	24.62300	750.34650	-761.70990	-78.29097	595.87427	-523.52509	74.09158	598.23621	-544.49512	38.99022	571.65894	350.43756	179.07451	568.53229	334.06357	
